# Blender v2.82 (sub 7) OBJ File: 'furnace.blend'
# www.blender.org
mtllib furnace.mtl
o Cube_Cube.001
v 0.000000 0.000000 1.000000
v 0.000000 1.000000 1.000000
v 0.000000 0.000000 0.000000
v 0.000000 1.000000 0.000000
v 1.000000 0.000000 1.000000
v 1.000000 1.000000 1.000000
v 1.000000 0.000000 0.000000
v 1.000000 1.000000 0.000000
v 0.000000 0.000000 0.125000
v 0.000000 0.000000 0.250000
v 0.000000 0.000000 0.375000
v 0.000000 0.000000 0.500000
v 0.000000 0.000000 0.625000
v 0.000000 0.000000 0.750000
v 0.000000 0.000000 0.875000
v 0.000000 1.000000 0.875000
v 0.000000 1.000000 0.750000
v 0.000000 1.000000 0.625000
v 0.000000 1.000000 0.500000
v 0.000000 1.000000 0.375000
v 0.000000 1.000000 0.250000
v 0.000000 1.000000 0.125000
v 0.000000 0.875000 1.000000
v 0.000000 0.750000 1.000000
v 0.000000 0.625000 1.000000
v 0.000000 0.500000 1.000000
v 0.000000 0.375000 1.000000
v 0.000000 0.250000 1.000000
v 0.000000 0.125000 1.000000
v 0.000000 0.875000 0.000000
v 0.000000 0.750000 0.000000
v 0.000000 0.625000 0.000000
v 0.000000 0.500000 0.000000
v 0.000000 0.375000 0.000000
v 0.000000 0.250000 0.000000
v 0.000000 0.125000 0.000000
v 0.000000 0.125000 0.125000
v 0.000000 0.250000 0.125000
v 0.000000 0.375000 0.125000
v 0.000000 0.500000 0.125000
v 0.000000 0.625000 0.125000
v 0.000000 0.750000 0.125000
v 0.000000 0.875000 0.125000
v 0.000000 0.125000 0.250000
v 0.000000 0.250000 0.250000
v 0.000000 0.375000 0.250000
v 0.000000 0.500000 0.250000
v 0.000000 0.625000 0.250000
v 0.000000 0.875000 0.250000
v 0.000000 0.125000 0.375000
v 0.000000 0.250000 0.375000
v 0.000000 0.500000 0.375000
v 0.000000 0.625000 0.375000
v 0.000000 0.750000 0.375000
v 0.000000 0.875000 0.375000
v 0.000000 0.125000 0.500000
v 0.000000 0.250000 0.500000
v 0.000000 0.625000 0.500000
v 0.000000 0.750000 0.500000
v 0.000000 0.875000 0.500000
v 0.000000 0.125000 0.625000
v 0.000000 0.250000 0.625000
v 0.000000 0.500000 0.625000
v 0.000000 0.625000 0.625000
v 0.000000 0.750000 0.625000
v 0.000000 0.875000 0.625000
v 0.000000 0.125000 0.750000
v 0.000000 0.250000 0.750000
v 0.000000 0.375000 0.750000
v 0.000000 0.500000 0.750000
v 0.000000 0.625000 0.750000
v 0.000000 0.875000 0.750000
v 0.000000 0.125000 0.875000
v 0.000000 0.250000 0.875000
v 0.000000 0.375000 0.875000
v 0.000000 0.500000 0.875000
v 0.000000 0.625000 0.875000
v 0.000000 0.750000 0.875000
v 0.000000 0.875000 0.875000
v 0.100000 0.625000 0.125000
v 0.100000 0.750000 0.125000
v 0.100000 0.875000 0.125000
v 0.100000 0.125000 0.250000
v 0.100000 0.250000 0.250000
v 0.100000 0.375000 0.250000
v 0.100000 0.500000 0.250000
v 0.100000 0.625000 0.250000
v 0.100000 0.750000 0.250000
v 0.100000 0.875000 0.250000
v 0.100000 0.125000 0.375000
v 0.100000 0.250000 0.375000
v 0.100000 0.375000 0.375000
v 0.100000 0.500000 0.375000
v 0.100000 0.625000 0.375000
v 0.100000 0.750000 0.375000
v 0.100000 0.875000 0.375000
v 0.100000 0.250000 0.500000
v 0.100000 0.375000 0.500000
v 0.100000 0.500000 0.500000
v 0.100000 0.625000 0.500000
v 0.100000 0.125000 0.625000
v 0.100000 0.250000 0.625000
v 0.100000 0.375000 0.625000
v 0.100000 0.500000 0.625000
v 0.100000 0.625000 0.625000
v 0.100000 0.750000 0.625000
v 0.100000 0.875000 0.625000
v 0.100000 0.125000 0.750000
v 0.100000 0.250000 0.750000
v 0.100000 0.375000 0.750000
v 0.100000 0.500000 0.750000
v 0.100000 0.625000 0.750000
v 0.100000 0.750000 0.750000
v 0.100000 0.875000 0.750000
v 0.100000 0.625000 0.875000
v 0.100000 0.750000 0.875000
v 0.100000 0.875000 0.875000
vt -0.000000 1.000000
vt 0.000000 -0.000000
vt 1.000000 0.000000
vt 1.000000 1.000000
vt 0.874924 0.874925
vt 0.999899 0.874925
vt 0.999899 0.999900
vt 0.874924 0.999900
vt 0.999900 0.500000
vt 0.999900 0.624975
vt 0.000100 0.999900
vt 0.000100 0.375025
vt 0.000100 0.250050
vt 0.999900 0.000100
vt 0.000100 0.375025
vt 0.999900 0.000100
vt 0.000100 0.500000
vt 0.000100 0.375025
vt 0.999900 0.000100
vt 0.000100 0.500000
vt 0.000100 0.874925
vt 0.125075 0.874925
vt 0.125075 0.999900
vt 0.000100 0.999899
vt 0.250050 0.874925
vt 0.250050 0.999900
vt 0.375025 0.874925
vt 0.375025 0.999900
vt 0.499999 0.874925
vt 0.499999 0.999900
vt 0.624974 0.874925
vt 0.624974 0.999900
vt 0.749949 0.874925
vt 0.749949 0.999900
vt 0.000100 0.000102
vt 0.125075 0.000101
vt 0.125075 0.125076
vt 0.000100 0.125076
vt 0.125075 0.250051
vt 0.000100 0.250051
vt 0.125075 0.375026
vt 0.000100 0.375026
vt 0.125075 0.500000
vt 0.125075 0.624975
vt 0.000100 0.624975
vt 0.125075 0.749950
vt 0.000100 0.749950
vt 0.250049 0.000101
vt 0.250050 0.125076
vt 0.250050 0.250051
vt 0.250050 0.375025
vt 0.250050 0.500000
vt 0.250050 0.624975
vt 0.115473 0.920011
vt 0.113385 0.978253
vt 0.093945 0.999950
vt 0.047311 0.934362
vt 0.125082 0.652098
vt 0.130513 0.500668
vt 0.251656 0.505013
vt 0.240473 0.660715
vt 0.375024 0.000101
vt 0.375024 0.125076
vt 0.135943 0.349239
vt 0.140873 0.211788
vt 0.239972 0.206384
vt 0.251656 0.348910
vt 0.145551 0.081326
vt 0.141583 0.191986
vt 0.039478 0.177127
vt 0.078592 0.062129
vt 0.045450 0.474953
vt 0.137111 0.176774
vt 0.320486 0.212100
vt 0.275093 0.525048
vt 0.375025 0.500000
vt 0.375025 0.624975
vt 0.120152 0.789549
vt 0.218610 0.802037
vt 0.147640 0.023083
vt 0.129805 0.000050
vt 0.499999 0.000101
vt 0.499999 0.125076
vt 0.499999 0.250050
vt 0.375024 0.250051
vt 0.202957 0.192468
vt 0.232089 0.501460
vt 0.000048 0.498540
vt 0.029374 0.180663
vt 0.147222 0.034732
vt 0.179548 0.017976
vt 0.037857 0.999943
vt 0.000057 0.787900
vt 0.183433 0.823227
vt 0.082424 0.990963
vt 0.500000 0.624975
vt 0.500000 0.749950
vt 0.375025 0.749950
vt 0.624974 0.000100
vt 0.624974 0.125075
vt 0.624974 0.250050
vt 0.311551 0.087415
vt 0.320486 0.527582
vt 0.000057 0.472418
vt 0.124773 0.004590
vt 0.124664 0.663746
vt 0.119442 0.809351
vt 0.016535 0.816858
vt 0.000990 0.664909
vt 0.195770 0.995410
vt 0.008992 0.912585
vt 0.624974 0.624975
vt 0.624974 0.749950
vt 0.749949 0.000100
vt 0.749949 0.125075
vt 0.136361 0.337591
vt 0.013088 0.327571
vt 0.092767 0.999952
vt 0.000048 0.809889
vt 0.173976 0.814280
vt 0.094560 0.961494
vt 0.238119 0.009037
vt 0.282686 0.000057
vt 0.624974 0.500000
vt 0.749949 0.500000
vt 0.749949 0.624975
vt 0.113802 0.966605
vt 0.144844 0.985633
vt 0.874924 0.000100
vt 0.874924 0.125075
vt 0.874924 0.250050
vt 0.749949 0.250050
vt 0.874924 0.375025
vt 0.749949 0.375025
vt 0.874924 0.500000
vt 0.874924 0.624975
vt 0.116225 0.899044
vt 0.186566 0.915003
vt 0.999899 0.000100
vt 0.999899 0.125075
vt 0.999899 0.250050
vt 0.999899 0.375025
vt 0.999899 0.500000
vt 0.999899 0.624975
vt 0.999899 0.749950
vt 0.874924 0.749950
vt 0.125000 0.625000
vt 0.250000 0.625000
vt 0.250000 0.750000
vt 0.125000 0.750000
vt 0.250000 0.875000
vt 0.125000 0.875000
vt 0.250000 0.125000
vt 0.375000 0.125000
vt 0.375000 0.250000
vt 0.250000 0.250000
vt 0.375000 0.375000
vt 0.250000 0.375000
vt 0.375000 0.500000
vt 0.250000 0.500000
vt 0.375000 0.625000
vt 0.375000 0.750000
vt 0.375000 0.875000
vt 0.500000 0.250000
vt 0.500000 0.375000
vt 0.500000 0.500000
vt 0.500000 0.625000
vt 0.625000 0.250000
vt 0.625000 0.375000
vt 0.625000 0.500000
vt 0.625000 0.625000
vt 0.625000 0.125000
vt 0.750000 0.125000
vt 0.750000 0.250000
vt 0.750000 0.375000
vt 0.750000 0.500000
vt 0.875000 0.875000
vt 0.750000 0.875000
vt 0.750000 0.750000
vt 0.875000 0.750000
vt 0.750000 0.625000
vt 0.875000 0.625000
vt 0.625000 0.875000
vt 0.625000 0.750000
vt 0.625000 0.625000
vt 0.202763 0.819337
vt 0.029180 0.807532
vt 0.000415 0.490663
vt 0.231722 0.509337
vt 0.144800 0.102293
vt 0.216103 0.091414
vt 0.130512 0.500668
vt 0.000050 0.495990
vt 0.058161 0.185720
vt 0.232089 0.190111
vt 0.137577 0.038506
vt 0.139370 0.000048
vt 0.999900 0.874925
vt 0.000100 0.000100
vt 0.999900 0.749950
vt 0.999900 0.000100
vt 0.999900 0.125075
vt 0.999900 0.250050
vt 0.999900 0.375025
vt 0.000100 0.125075
vt 0.999900 0.999900
vt 0.000100 0.500000
vt 0.000100 0.999900
vt 0.000100 0.874925
vt 0.000100 0.749950
vt 0.000100 0.624975
vt 0.999900 0.999900
vt 0.000100 0.999900
vt 0.000100 0.874925
vt 0.000100 0.749950
vt 0.000100 0.624975
vt 0.000100 0.000100
vt 0.000100 0.125075
vt 0.000100 0.250050
vt 0.999900 0.999900
vt 0.000100 0.999900
vt 0.000100 0.874925
vt 0.000100 0.749950
vt 0.000100 0.624975
vt 0.000100 0.000100
vt 0.000100 0.125075
vt 0.000100 0.250050
vn 0.5773 -0.5773 -0.5773
vn 0.5773 0.5773 -0.5773
vn 0.5773 0.5773 0.5773
vn 0.5773 -0.5773 0.5773
vn -0.9045 -0.3015 -0.3015
vn -0.7071 0.0000 0.7071
vn -0.5773 0.5773 0.5773
vn -0.7071 0.7071 0.0000
vn -0.7071 -0.7071 0.0000
vn -0.7071 0.0000 -0.7071
vn -0.9045 -0.3015 0.3015
vn -0.5773 0.5773 -0.5773
vn -1.0000 0.0000 0.0000
vn -0.5773 -0.5773 -0.5773
vn -0.9045 0.3015 0.3015
vn -0.5773 -0.5773 0.5773
vn -0.9045 0.3015 -0.3015
usemtl Material.001
s 1
f 7/1/1 8/2/2 6/3/3 5/4/4
f 79/5/5 23/6/6 2/7/7 16/8/8
f 19/9/8 18/10/8 6/11/3
f 11/12/9 10/13/9 7/14/1
f 32/15/10 8/16/2 33/17/10
f 27/18/6 5/19/4 26/20/6
f 30/21/10 43/22/11 22/23/8 4/24/12
f 43/22/11 49/25/9 21/26/8 22/23/8
f 49/25/9 55/27/5 20/28/8 21/26/8
f 55/27/5 60/29/13 19/30/8 20/28/8
f 60/29/13 66/31/11 18/32/8 19/30/8
f 66/31/11 72/33/9 17/34/8 18/32/8
f 72/33/9 79/5/5 16/8/8 17/34/8
f 3/35/14 9/36/9 37/37/13 36/38/10
f 36/38/10 37/37/13 38/39/13 35/40/10
f 35/40/10 38/39/13 39/41/13 34/42/10
f 34/42/10 39/41/13 40/43/13 33/17/10
f 33/17/10 40/43/13 41/44/15 32/45/10
f 32/45/10 41/44/15 42/46/6 31/47/10
f 31/47/10 42/46/6 43/22/11 30/21/10
f 9/36/9 10/48/9 44/49/15 37/37/13
f 37/37/13 44/49/15 45/50/6 38/39/13
f 38/39/13 45/50/6 46/51/6 39/41/13
f 39/41/13 46/51/6 47/52/11 40/43/13
f 40/43/13 47/52/11 48/53/8 41/44/15
f 52/54/16 47/55/11 86/56/16 93/57/11
f 50/58/17 51/59/12 91/60/17 90/61/12
f 10/48/9 11/62/9 50/63/17 44/49/15
f 57/64/8 62/65/7 102/66/15 97/67/8
f 69/68/10 70/69/5 111/70/14 110/71/10
f 72/72/9 66/73/11 107/74/16 114/75/9
f 47/52/11 52/76/16 53/77/13 48/53/8
f 44/78/15 50/58/17 90/61/12 83/79/7
f 68/80/10 69/68/10 110/71/10 109/81/10
f 11/62/9 12/82/9 56/83/13 50/63/17
f 50/63/17 56/83/13 57/84/8 51/85/12
f 49/86/9 43/87/11 82/88/16 89/89/9
f 67/90/17 68/80/10 109/81/10 108/91/12
f 78/92/10 79/93/5 117/94/14 116/95/10
f 53/77/13 58/96/9 59/97/13 54/98/10
f 54/98/10 59/97/13 60/29/13 55/27/5
f 12/82/9 13/99/9 61/100/15 56/83/13
f 56/83/13 61/100/15 62/101/7 57/84/8
f 64/102/13 71/103/8 112/104/8 105/105/13
f 58/106/9 53/107/13 94/108/13 100/109/9
f 77/110/17 78/92/10 116/95/10 115/111/12
f 58/96/9 64/112/13 65/113/6 59/97/13
f 59/97/13 65/113/6 66/31/11 60/29/13
f 13/99/9 14/114/9 67/115/17 61/100/15
f 70/69/5 63/116/14 104/117/5 111/70/14
f 41/118/15 48/119/8 87/120/8 80/121/7
f 66/73/11 65/122/6 106/123/6 107/74/16
f 63/124/14 70/125/5 71/126/8 64/112/13
f 47/55/11 46/127/6 85/128/6 86/56/16
f 65/122/6 64/102/13 105/105/13 106/123/6
f 14/114/9 15/129/9 73/130/13 67/115/17
f 67/115/17 73/130/13 74/131/13 68/132/10
f 68/132/10 74/131/13 75/133/13 69/134/10
f 69/134/10 75/133/13 76/135/13 70/125/5
f 70/125/5 76/135/13 77/136/17 71/126/8
f 46/127/6 45/137/6 84/138/6 85/128/6
f 51/59/12 57/64/8 97/67/8 91/60/17
f 15/129/9 1/139/16 29/140/6 73/130/13
f 73/130/13 29/140/6 28/141/6 74/131/13
f 74/131/13 28/141/6 27/142/6 75/133/13
f 75/133/13 27/142/6 26/143/6 76/135/13
f 76/135/13 26/143/6 25/144/6 77/136/17
f 77/136/17 25/144/6 24/145/6 78/146/10
f 78/146/10 24/145/6 23/6/6 79/5/5
f 80/147/7 87/148/8 88/149/13 81/150/6
f 81/150/6 88/149/13 89/151/9 82/152/16
f 83/153/7 90/154/12 91/155/17 84/156/6
f 84/156/6 91/155/17 92/157/13 85/158/6
f 85/158/6 92/157/13 93/159/11 86/160/16
f 87/148/8 94/161/13 95/162/10 88/149/13
f 88/149/13 95/162/10 96/163/14 89/151/9
f 91/155/17 97/164/8 98/165/13 92/157/13
f 92/157/13 98/165/13 99/166/13 93/159/11
f 93/159/11 99/166/13 100/167/9 94/161/13
f 97/164/8 102/168/15 103/169/13 98/165/13
f 98/165/13 103/169/13 104/170/5 99/166/13
f 99/166/13 104/170/5 105/171/13 100/167/9
f 101/172/7 108/173/12 109/174/10 102/168/15
f 102/168/15 109/174/10 110/175/10 103/169/13
f 103/169/13 110/175/10 111/176/14 104/170/5
f 105/177/13 112/178/8 113/179/13 106/180/6
f 106/180/6 113/179/13 114/181/9 107/182/16
f 112/178/8 115/183/12 116/184/10 113/179/13
f 113/179/13 116/184/10 117/185/14 114/181/9
f 42/186/6 41/118/15 80/121/7 81/187/6
f 48/119/8 53/188/13 94/189/13 87/120/8
f 43/87/11 42/186/6 81/187/6 82/88/16
f 62/65/7 61/190/15 101/191/7 102/66/15
f 64/192/13 58/106/9 100/109/9 105/193/13
f 53/107/13 52/54/16 93/57/11 94/108/13
f 71/103/8 77/110/17 115/111/12 112/104/8
f 53/188/13 54/194/10 95/195/10 94/189/13
f 55/196/5 49/86/9 89/89/9 96/197/14
f 54/194/10 55/196/5 96/197/14 95/195/10
f 45/137/6 44/78/15 83/79/7 84/138/6
f 79/93/5 72/72/9 114/75/9 117/94/14
f 63/116/14 64/192/13 105/193/13 104/117/5
f 61/190/15 67/90/17 108/91/12 101/191/7
f 2/7/7 6/11/3 16/198/8
f 6/11/3 8/199/2 19/9/8
f 16/198/8 6/11/3 17/200/8
f 8/199/2 4/201/12 22/202/8
f 21/203/8 20/204/8 8/199/2
f 20/204/8 19/9/8 8/199/2
f 8/199/2 22/202/8 21/203/8
f 17/200/8 6/11/3 18/10/8
f 9/205/9 3/35/14 7/14/1
f 7/14/1 5/206/4 12/207/9
f 5/206/4 1/208/16 15/209/9
f 15/209/9 14/210/9 5/206/4
f 14/210/9 13/211/9 5/206/4
f 5/206/4 13/211/9 12/207/9
f 10/13/9 9/205/9 7/14/1
f 12/207/9 11/12/9 7/14/1
f 7/212/1 3/213/14 36/214/10
f 35/215/10 34/216/10 7/212/1
f 34/216/10 33/17/10 7/212/1
f 7/212/1 36/214/10 35/215/10
f 4/217/12 8/16/2 30/218/10
f 8/16/2 7/212/1 33/17/10
f 30/218/10 8/16/2 31/219/10
f 32/15/10 31/219/10 8/16/2
f 6/220/3 2/221/7 23/222/6
f 24/223/6 25/224/6 6/220/3
f 25/224/6 26/20/6 6/220/3
f 6/220/3 23/222/6 24/223/6
f 1/225/16 5/19/4 29/226/6
f 5/19/4 6/220/3 26/20/6
f 29/226/6 5/19/4 28/227/6
f 27/18/6 28/227/6 5/19/4
